<svg version="1" xmlns="http://www.w3.org/2000/svg" width="933.333" height="933.333" viewBox="0 0 700.000000 700.000000"><path d="M55.5 101.7c-2.4.6-9.3 5.9-12 9.2-5.1 6.3-9.9 18.5-9 22.9.1.9.6 5 .9 9.1.4 4.1.9 7.7 1.1 8 .2.3.6 3.1.9 6.1.3 3 .8 6.8 1.1 8.5.7 4.3 1.5 10.3 2.1 15 .3 2.2.7 5.6 1 7.5.3 1.9.9 6.6 1.4 10.5.6 3.8 1.2 8.6 1.5 10.5.2 1.9 1.1 8.2 1.9 14 1.4 9.6 1.9 13.1 3.1 23 .2 1.9.7 5.1.9 7 1.2 8 1.6 11.4 2.1 15.8.3 2.6.8 5.4 1 6.2.2.8.7 4 1 7 .3 3 .8 6.2 1 7 .3.8.7 3.7 1 6.5 1.9 16.4 2.3 19 2.5 19 .1 0 .4 2.3 1.4 11.5.4 3 .8 6.2 1.1 7 .2.8.7 4 1 7 .3 3 .8 6.6 1 8 .5 3.1 2.4 17.2 3 22.5.7 5.1 1.4 10.6 1.9 13 .4 2.3 1.8 11.9 2.1 15.5.5 4.3 1.5 11.1 2 13.3.2 1.2.7 4.2 1 6.7.3 2.5.7 5.6.9 7 .2 1.4.7 4.7 1.1 7.3.4 2.7.8 5.6 1 6.5.1 1 .6 3.9.9 6.7.4 2.7.8 6.1 1.1 7.5.2 1.4.7 4.7 1 7.5.3 2.7.7 6.1 1 7.5.2 1.4.7 4.5 1 7 .3 2.5.7 5.4.9 6.5.2 1.1.7 4.7 1 8 .4 3.3.9 6.7 1.1 7.5.2.8.7 4.2 1 7.4.6 6 .9 8.8 2 16.1.4 2.2.8 5.8 1.1 8 .3 2.2.7 5.1.9 6.5.3 1.4.8 4.7 1.1 7.4.5 4.2 3 16.5 4.9 24 1.8 7.5 20.5 28.5 27.3 30.7 3.2 1 7.4.9 22.7-.7 2.8-.3 6.1-.8 7.5-1 1.4-.3 4.3-.7 6.5-.9 4.2-.5 10.3-1.3 14.5-2 1.4-.2 4.5-.7 6.9-1 2.3-.3 5.5-.7 7-.9 1.4-.3 6.2-1 10.6-1.6 12.2-1.7 19.1-2.6 25-3.5 2.2-.3 5.8-.8 8-1 2.2-.3 5.1-.7 6.4-.9 1.3-.3 4.9-.8 8-1.2 3.1-.3 6.3-.7 7.1-.9 5.5-1 10.4-1.7 13.7-2 5.8-.6 12.2-1.5 18.3-2.5 3-.5 8.2-1.2 11.5-1.6 3.3-.3 6.9-.8 8-1 2.5-.5 10.4-1.6 13-1.9 2.9-.3 13.7-1.7 15.9-2.1 1-.2 4.4-.6 7.5-1 3.1-.3 6.4-.8 7.5-1 1-.2 4.4-.6 7.5-1 3.1-.3 6.3-.8 7.2-.9.9-.2 4-.6 7-1 3-.3 6.1-.8 6.9-1 .8-.3 4-.7 7-1 3-.3 8.2-1 11.5-1.5 3.3-.5 8-1.2 10.5-1.5 7.4-.9 10.3-1.3 14-1.9 4.8-.7 40.9-5.7 44-6.1 1.4-.1 4.4-.5 6.8-.9 2.3-.3 6-.8 8.2-1.1 2.1-.3 5.3-.8 7-1 4.3-.7 8.9-1.3 14-2.1 2.5-.3 5.9-.8 7.5-1 1.7-.2 4.8-.6 7-.9 4.6-.5 11.1-1.5 20.3-2.9 3.1-.5 15.6-2.3 22.2-3.1 2.5-.4 8.6-1.2 13.5-2 5-.7 11.5-1.7 14.5-2 6.2-.8 9.6-1.2 16-2.1 2.5-.3 6.1-.7 8-1 1.9-.2 5.1-.6 7-.9 1.9-.3 5.5-.7 8-1 2.5-.2 6.5-.7 9-1 2.5-.2 7-.7 10-1 6.7-.7 9.4-2.6 14.1-9.5 4.2-6.1 6.3-13.9 6.1-22.3-.1-4.6-2.5-20.5-4.6-30.2-.2-1.1-1.1-5.8-2-10.5-.9-4.7-1.8-9.4-2-10.5-3.1-14.9-5.6-27.5-6.1-29.8-.3-1.5-.8-3.9-1.1-5.5-.3-1.5-.7-3.6-.9-4.7-.8-5.4-1.8-10.6-3.2-17-1.4-6.9-1.8-8.7-2.6-13.5-.8-4.4-4.9-25.4-6.1-31-.4-1.6-1.5-7.8-2.2-12-.3-1.4-.7-3.3-1-4.3-.3-1-.7-3.1-.9-4.8-.3-1.7-.7-3.9-1-4.9-.3-1-.8-3.1-1-4.6-.6-3.8-1.2-7.2-3.5-17.9-1-5-2.1-10.6-2.4-12.5-.3-1.9-.8-4.6-1.1-6-.2-1.4-1.6-8.5-3-15.8-1.3-7.4-2.7-13.7-2.9-14.1-.3-.4-.7-2.5-1-4.8-.2-2.2-1-6-1.6-8.2-.6-2.3-1.3-5.4-1.5-6.9-.1-1.5-.8-4.5-1.4-6.7-.9-3.7-1.8-7.8-2.7-13-.1-1.1-1.5-7.4-2.9-14s-2.8-13.4-3-15c-.3-1.7-.8-4.2-1.1-5.7-.3-1.5-.5-3-.5-3.3 0-1.3-5.1-13.2-7.4-17-4-6.9-7.4-10.4-12.6-13.1-2.7-1.3-5.1-2.4-5.4-2.3-.3 0-2.2-.2-4.3-.5-4-.7-12.6-1.6-18.2-2.1-1.9-.1-7.3-.6-12-.9-4.7-.4-10.5-.8-13-1.1-2.5-.2-8.3-.6-13-1-4.7-.3-10.5-.8-13-1-2.5-.2-8.5-.6-13.5-.9-4.9-.3-11.6-.8-14.7-1.1-5.4-.5-8.5-.7-28.3-2-4.4-.3-10.5-.7-13.5-1-5.3-.4-13.5-1-29-2.1-4.1-.2-9.5-.6-12-.9-2.5-.2-8.8-.6-14-.9-5.2-.4-12.4-.9-16-1.2-8.2-.6-17.2-1.2-28-1.9-4.7-.3-10.5-.8-13-1-2.5-.3-8.3-.7-13-1-4.7-.3-10.7-.8-13.5-1-2.7-.2-9.7-.7-15.5-1-5.8-.4-11.6-.8-13-1-1.4-.2-6.3-.7-11-1-4.7-.4-10.1-.8-12-1.1-1.9-.2-8.9-.6-15.5-.9-23.8-1-34.8-1.6-35.4-1.9-.3-.2-3.3-.6-6.6-1-20.4-2-23.5-2.3-36-3.2-4.9-.3-11-.8-13.5-.9-28.4-2.1-74.9-3.8-78.5-2.8zm45 16.8c7.7.4 16.3.9 19 1 8.7.5 23.8 1.5 29 2 2.8.2 9.7.7 15.5 1.1 5.7.3 11.4.8 12.5 1 1.1.2 5.2.6 9 .9 3.9.3 9.3.7 12 1 2.8.3 9.1.7 14 1 5 .3 12.6.8 17 1 4.4.3 11.4.8 15.5 1 9.1.5 22 1.4 31.5 2.1 8.8.6 16.5 1.1 28.5 1.9 5.2.3 11.8.8 14.5 1 2.8.2 9.3.7 14.5 1 5.2.3 12.4.8 16 1 9.1.8 17.3 1.3 46 3.1 4.7.3 11.7.7 15.5 1 10.8.7 17.2 1.2 27.5 1.8 5.2.4 11.8.9 14.5 1.2 2.8.3 7.5.7 10.5 1 3 .2 8.2.6 11.5.9 3.3.2 9.8.7 14.5 1 38.8 2.2 53.3 3.1 61 4 23.6 2.5 31.3 7 36.8 21.5 3.2 8.3 6.1 19.2 6.4 23.6l.3 3.9-10.5-.1c-5.8-.1-18.6-.4-28.5-.8-9.9-.5-21.4-.9-25.5-1.1-4.1-.2-7.5-.4-7.5-.4 0-.1-7.2-.3-16-.6s-20.5-.7-26-1c-5.5-.2-16.7-.7-25-1-21.3-.8-34.3-1.4-47.5-2-6.3-.2-17.6-.7-25-1-7.4-.3-17.8-.7-23-1-5.2-.2-16.2-.7-24.5-1-8.2-.3-18.8-.7-23.5-1-4.7-.2-15-.6-23-1-19.9-.7-36.7-1.5-48-2.1-5.2-.2-15.8-.7-23.5-.9-7.7-.3-19.2-.7-25.5-.9-25.7-1-44.2-1.7-56-2.1-42.2-1.4-64.5-2.6-71-3.9-6.2-1.2-6.7-1.6-8-7.4-2-8.3-2.2-35.7-.4-40.2 2.7-6.3 7-9.5 14.7-10.8 4.8-.9 10.7-.8 30.2.3zm7 83.9c15.8.8 36 1.6 51 2.1 7.2.3 18.2.7 24.5 1 6.3.2 20.7.7 32 1 61.3 1.8 77.6 2.4 112.7 4 21.8 1 23.5 2.5 26.7 22 3.6 22 3.6 23.9 0 30.2-1.5 2.6-3.3 5.5-4 6.3-3.2 3.9-4.7 11.3-4 21.1.4 5.2.9 10.6 1.1 11.9.5 2.5 1.5 12.8 2 19 .2 3.5-1.6 11.7-3.1 14.2-.5.7-.9 1.5-.9 1.8-.1.3-.8 2.1-1.7 4-6.7 15.2-9.4 22.8-10.5 29.7-.9 6.4-.6 20.5.7 26.7.6 2.8 1.2 6 1.4 7.1 1.7 8.3 9.6 24.7 16 33 8.8 11.4 24.6 23.4 33 24.9 1.4.2 3 .7 3.6 1.1 3 1.9 19.6 2.3 22.7.6 1.1-.6 2.3-.8 2.6-.5.3.3 1.2.2 1.9-.2.7-.5 1.9-.9 2.6-1 .7-.1 3.2-1.4 5.5-2.7 12.4-7.3 22.1-22.6 25.3-39.7.2-1.4.7-3.6 1-5 .7-3 .6-16-.1-21.5-1.4-10.4-10.9-33.9-15.5-38-1.1-1-2-2.2-2-2.7 0-.9-6.2-9.6-10-13.8-8-9.2-16-27.7-18-42.3-1.4-9.7-7.2-21.4-14.5-29.2-7.4-8-11.3-15.9-12-24.1-.1-1.2-.5-2.9-.9-3.9s-.9-3.4-1.2-5.4c-.3-2-.9-5.2-1.5-7.1-1.3-4.9-1.1-10.3.4-12.2 1.7-2.3 7-3.3 15.7-3.2 16.7.4 51.6 1.8 97.5 3.9 3.9.2 18.3.6 32 .9 48.1 1.2 63 1.6 68.5 2.1 8.1.8 9.6 2.9 13.5 18.7.8 3.1 1.7 7.1 2 8.8.3 1.7 1.2 6.3 2.1 10.3.8 3.9 1.7 8.3 1.9 9.7.4 2.6 5.2 25.9 6.1 29.5.3 1.1.7 3.3 1 5 .4 3.5 1.2 7 1.4 7 .1 0 .3.9.4 2 .2 1.1 1.5 8.1 3 15.5 1.6 7.4 3 14.4 3.2 15.5.2 1.1.6 3.1.9 4.5.3 1.4.7 3.6 1 5 1.5 8.5 4.8 25.2 5.6 29 .5 2.5 1.2 5.6 1.4 7 .3 1.4.8 4.1 1.2 6 .3 1.9.7 4.2.8 5 .1.8.5 2.6.8 4 .4 1.4.9 3.8 1.2 5.5 1.1 6.1 3.5 19.1 3.9 21 .2 1.1 1.1 5.8 2 10.5.8 4.7 1.8 9.8 2.1 11.5.7 3.7 2.3 12.9 3.1 17.4.3 1.8.8 4.3 1 5.5 1 5.2 2.1 12 2.9 18.9.5 3.8.2 7.1-.9 10.9-2 6.9-5.2 10-12 11.2-.6.1-2.4.5-4.1.9-1.6.3-4.8.9-7 1.2-2.2.3-5.3.8-7 1-4.7.8-10.3 1.4-18.5 2-10.8.8-15 1.4-16.2 2.1-.6.4-2.1.8-3.2 1-1.2.2-4.8.7-8.1 1.3-3.3.5-7.9 1.3-10.2 1.6-2.3.3-5.7.8-7.5 1.1-1.8.2-5.3.7-7.8 1-2.5.3-6.1.7-8 1-1.9.2-5.3.6-7.5.9-2.2.2-6 .7-8.5 1-2.5.3-6.7.8-9.5 1.1-5.3.6-27.4 3.9-31.5 4.8-1.3.3-4.9.8-8 1.1-3 .3-6.8.7-8.5.9-3.9.5-15.3 1.8-18.5 2.1-1.4.2-5 .6-8 1s-6.6.8-8 1c-3.8.4-13.2 1.6-16 2-1.4.2-4.4.6-6.7.9-2.4.3-6.2.9-8.5 1.2-2.4.4-5.4.8-6.8.9-8.9 1-13.7 1.6-15 2-.8.2-3.9.7-6.9 1-3 .4-6.3.9-7.5 1.1-1.2.2-3.9.6-6.1.9-2.2.3-4.9.7-6.1.9-1.1.2-4.7.7-7.9 1-6.3.7-11.5 1.4-15.5 2.1-1.4.3-5 .7-8 1-3 .3-6.6.8-8 1-1.4.3-4.5.7-7 1-2.5.3-6.1.7-8 1-1.9.3-5.5.7-8 1-2.5.2-11.5 1.3-20 2.4-8.5 1.1-17.5 2.3-20 2.6-2.5.3-5.2.7-6 1-.8.2-4 .7-7 1-3 .3-6.6.8-8 1-1.4.2-8.1 1.1-15 2-6.9.8-14.1 1.8-16 2-1.9.3-5.7.7-8.5 1-2.7.3-6.3.8-7.8 1.1-3.1.6-4.5.9-12.2 1.8-2.7.4-6.1.9-7.5 1.2-4.8.9-30.5 1.1-33.7.3-3.7-1.1-11-9.5-14.8-16.9-3.2-6.3-7.1-22.1-8.9-36-.5-3.6-1.4-9.6-2.1-14-.3-1.4-1-6.1-1.5-10.5-.6-4.4-1.3-9.6-1.6-11.5-.3-1.9-.7-4.6-.9-6-.3-1.4-.7-4.8-1-7.5-.3-2.8-.8-6.2-1-7.8-.3-1.5-.7-3.9-1-5.5-.2-1.5-.7-5-1-7.7-.3-2.8-.7-6.1-1-7.5-.2-1.4-.7-4.8-1-7.5-.4-2.8-.8-6.4-1.1-8-.2-1.7-.6-5.3-.9-8-.4-2.8-.8-5.7-1.1-6.7-.3-.9-.7-4-.9-7-.2-2.9-.6-6.2-.8-7.3-.3-1.1-.8-4.5-1.2-7.5-.3-3-.8-6.6-1-8-.2-1.4-.6-4.5-1-7-.3-2.5-.8-5.6-1-7-.3-1.4-.7-4.2-1-6.4-.5-4.6-1.2-9.5-2.1-15.6-.3-2.5-.8-5.6-.9-7-.2-1.4-.6-4.3-.9-6.5-.3-2.2-.8-5.8-1.1-8-.3-2.2-.7-5.1-1-6.5-.7-3.8-1.7-11.1-2-14.5-.1-1.7-.5-5-.9-7.5-1.1-6.4-1.4-8.4-2.7-18.5-1.1-8.8-1.5-11.5-1.9-12.5-.1-.3-.2-.8-.1-1.2 0-.4-.6-5.6-1.4-11.5-.9-5.9-1.8-12.6-2.1-14.8-.3-2.2-.7-5.1-.9-6.5-1.4-9-2.2-15.9-3.2-28.2l-.5-6.7 17.8.4c9.9.2 22.9.7 28.9.9zm267.8 87.5c1.8 3.7 3.1 8.2 3.1 10.5l.1 4.1-4.8.3c-7.1.5-7.6-.4-7.2-10.7.2-4.8.9-10.1 1.5-11.7 1.1-2.8 1.2-2.9 2.7-.9.8 1.1 2.9 4.9 4.6 8.4zm16.5 37.9c1.5 1.6 5 6.2 7.7 10.2 2.8 4 5.5 7.8 6.1 8.4.6.6 3.8 4.9 7.2 9.4 15.5 20.9 21.3 37.5 18.9 53.7-.8 5.3-1.3 6.9-5 14.2-8.4 17-24.2 23.6-40.5 17-14.7-5.9-27.1-21.1-31.7-38.8-1-3.5-1.8-10.6-2-15.7-.3-10.9.3-13.5 9.8-36.5 3.6-8.7 6.5-15.9 6.5-16 0-2 1.8-6.5 3-7.5 1-.7 4.7-1.2 9.5-1.2 7.3 0 8 .2 10.5 2.8z"/><path d="M460.8 379.7c-2.3.6-3.1 3.5-1.8 6.9.6 1.6 1.2 3.1 1.2 3.4.2 1.7 1.8 4.7 3.4 6.1 1.7 1.5 5 2.4 15.2 4.4 1.4.2 3.1-.4 4.3-1.6 1.6-1.6 1.8-2.9 1.4-8.1-.7-8.2-1.1-9.3-4.1-10.6-2.4-1.1-16-1.5-19.6-.5zM298.3 387.9c-9.3 3.2-10.1 5.1-5.6 13.8 3.4 6.7 5.5 8.1 14.1 8.9 9 .8 10.7-.2 12.7-7 2.5-8.7 2.5-9.2-.3-11.8-6.9-6.3-11.3-7.2-20.9-3.9zM452.6 448.3c-2.7 2-3.3 10.4-1.1 15.1 3.1 6.5 13.8 13.6 20.5 13.6 3.4 0 4.2-1.8 3.3-7.3-1.5-9.6-6.8-16.7-15.1-20.4-6.2-2.7-5.4-2.6-7.6-1zM346 458.9c-9.6 3.4-12.2 7.3-11.5 16.9.4 5.7.7 7 2.5 10.2 4.6 8.5 11.8 5.6 16.1-6.6 2.1-5.6 3.2-19.4 1.8-20.8-1.3-1.4-4.6-1.3-8.9.3zM403.6 482.9c-4.6 5.1-4.2 15.6.9 26.5 3.3 7 5.5 8.3 9.5 5.9 5.6-3.2 7.8-14.6 4.8-24.6-2.3-7.6-11.2-12.2-15.2-7.8z"/></svg>