<?xml version="1.0" encoding="UTF-8" standalone="no"?>
<!DOCTYPE svg PUBLIC "-//W3C//DTD SVG 1.1//EN" "http://www.w3.org/Graphics/SVG/1.1/DTD/svg11.dtd">
<svg version="1.1" xmlns="http://www.w3.org/2000/svg" xmlns:xlink="http://www.w3.org/1999/xlink" preserveAspectRatio="xMidYMid meet" viewBox="0.16666666666667496 0.3333333333333286 61.33333333333333 60.83333333333334" width="56.83" height="56.33"><defs><path d="M58.5 30C58.5 45.55 45.77 58.17 30.08 58.17C14.4 58.17 1.67 45.55 1.67 30C1.67 14.45 14.4 1.83 30.08 1.83C45.77 1.83 58.5 14.45 58.5 30Z" id="b11sJVaIIR"></path><path d="M57.95 29.44C58.26 44.87 45.99 57.64 30.56 57.95C15.13 58.26 2.36 45.99 2.05 30.56C1.74 15.13 14.01 2.36 29.44 2.05C44.87 1.74 57.64 14.01 57.95 29.44Z" id="ariWX9dJU"></path><path d="M33.82 26.17L47.49 26.15L47.5 33.81L33.83 33.82L33.85 47.49L26.19 47.5L26.18 33.83L12.51 33.85L12.5 26.19L26.17 26.18L26.15 12.51L33.81 12.5L33.82 26.17Z" id="b3PZFXpWIN"></path></defs><g><g><use xlink:href="#b11sJVaIIR" opacity="1" fill="#ffffff" fill-opacity="0.98"></use></g><g><use xlink:href="#ariWX9dJU" opacity="1" fill="#6f289f" fill-opacity="0"></use><g><use xlink:href="#ariWX9dJU" opacity="1" fill-opacity="0" stroke="#10544a" stroke-width="3" stroke-opacity="1"></use></g></g><g><use xlink:href="#b3PZFXpWIN" opacity="1" fill="#1f8c7c" fill-opacity="0.98"></use><g><use xlink:href="#b3PZFXpWIN" opacity="1" fill-opacity="0" stroke="#000000" stroke-width="0" stroke-opacity="1"></use></g></g></g></svg>