<?xml version="1.0" encoding="utf-8"?>
<!DOCTYPE svg PUBLIC "-//W3C//DTD SVG 20010904//EN" "http://www.w3.org/TR/2001/REC-SVG-20010904/DTD/svg10.dtd">
<svg version="1.0" xmlns="http://www.w3.org/2000/svg" width="350px" height="277px" viewBox="0 0 350 277" preserveAspectRatio="xMidYMid meet">
 <g fill="#ffffff">
  <path d="M54.6 256.9 c-7.8 -7.8 -7.3 -5.9 -13.1 -49.9 -0.8 -5.8 -2.1 -15.2 -2.9 -21 -2.9 -19.8 -5.4 -37.8 -9 -64.5 -0.8 -6 -2.2 -16.2 -3.1 -22.5 -2.5 -17.8 -5.4 -39.4 -7.1 -52 -0.9 -6.3 -1.8 -13.2 -2.1 -15.3 -0.6 -4.7 2.3 -11.4 6.8 -15.1 3.2 -2.7 3.3 -2.8 15.8 -2.3 19.1 0.7 45.7 2.6 52.5 3.7 3.4 0.5 9.7 1 14.1 1 4.4 0 12.1 0.5 17 1 5 0.5 16 1.4 24.5 1.9 8.5 0.6 22 1.6 30 2.2 8 0.5 23.7 1.7 35 2.5 41.1 2.9 48.6 3.5 52 3.8 1.9 0.2 7.9 0.7 13.2 1.1 6.5 0.5 10.7 1.4 12.7 2.6 3.8 2.3 7.9 9.4 9.1 15.6 1.7 8.8 5 24.7 7 33.8 1.1 5 2.4 11.5 2.9 14.5 0.5 3 2.5 13.4 4.4 23 2 9.6 5.4 27.2 7.7 39 2.2 11.8 4.5 23.3 5 25.5 1 4.4 3.5 17.6 4.5 24.3 0.4 2.6 0.2 6.2 -0.5 8.7 -1.2 4.4 -5.2 9.5 -7.3 9.5 -1.8 0 -24.7 2.8 -36.2 4.4 -5.5 0.8 -15.2 2.2 -21.5 3.1 -21.1 3 -34.3 4.8 -64 8.9 -18.9 2.6 -40.8 5.6 -52.5 7.1 -6 0.8 -15.7 2.2 -21.5 3 -5.8 0.8 -15.4 2.2 -21.5 3 -6 0.8 -15.7 2.2 -21.5 3 -5.8 0.9 -13.6 1.9 -17.3 2.2 -6.8 0.6 -6.8 0.6 -13.1 -5.8z m31.5 -5.3 c4.6 -0.8 11.3 -1.7 14.9 -2.1 3.6 -0.4 12.4 -1.5 19.5 -2.5 7.2 -1.1 22.2 -3 33.5 -4.4 11.3 -1.4 23.4 -3 27 -3.6 15.3 -2.3 41.2 -5.6 54.1 -7 4.2 -0.4 8.5 -1 9.5 -1.4 1.1 -0.3 11.7 -1.7 23.7 -3.1 12 -1.4 22.7 -3 23.7 -3.5 1 -0.6 3.7 -1 6 -1 2.3 0 8.8 -0.7 14.5 -1.6 11.2 -1.8 11.2 -1.8 13 -9.5 0.6 -2.2 -8.6 -51.1 -20.1 -107.4 -7.1 -35 -5.4 -31.1 -14.1 -31.9 -4.2 -0.3 -12.9 -0.6 -19.4 -0.6 -6.5 0 -20.7 -0.4 -31.6 -0.9 -10.9 -0.6 -27.6 -1.2 -37.1 -1.5 -19.5 -0.6 -18.2 -2 -14.5 15.6 1.5 6.8 2.1 8.2 6 11.9 3.9 3.8 7.3 11 7.3 15.5 0 0.6 0.9 4.2 2 7.8 1.5 4.6 3.6 8.4 7 12.6 2.8 3.2 5 6.4 5 7 0 0.5 0.4 1 0.8 1 1.1 0 5.7 10.1 7.1 15.5 3.9 14.7 -2.1 31.8 -13.1 37.3 -17.7 8.7 -39.7 -7.4 -43.9 -32.1 -1.6 -9.3 -0.5 -15.6 4.3 -26.1 4.1 -8.9 4.1 -8.9 2.9 -18.2 -1.7 -13.8 -1.5 -15.5 2 -20.8 3.2 -4.8 3.2 -4.8 1.3 -15.9 -1.9 -11.2 -1.9 -11.2 -12.4 -11.9 -5.8 -0.4 -26 -1.1 -45 -1.7 -19 -0.5 -46.8 -1.5 -61.8 -2.2 -14.9 -0.7 -27.5 -1 -27.8 -0.6 -0.3 0.3 1 11.9 3 25.9 5.5 39.3 7.6 54.2 15 108.8 5.4 39.2 6.1 42.5 10.2 48.1 1.9 2.6 4 5 4.7 5.2 2.5 1.1 14.7 0.7 22.8 -0.7z m123.1 -70.3 c4.3 -3.9 7.1 -10.7 7 -16.7 -0.1 -7.6 -3.4 -15.1 -10.9 -24.7 -3.8 -4.7 -7.4 -9.7 -8.2 -11.2 -1.3 -2.4 -2 -2.7 -6.6 -2.7 -5 0 -5.3 0.1 -5.8 2.9 -0.4 1.6 -2.5 7.3 -4.8 12.7 -3.9 9.1 -4.1 10.2 -3.7 16.9 1.3 20.2 21.2 33.9 33 22.8z m-19.8 -68 c-0.9 -4.2 -3.8 -9.8 -4.9 -9.8 -0.5 0 -1.1 2.8 -1.3 6.3 -0.3 6.2 -0.3 6.2 3.3 6.2 3.3 0 3.5 -0.1 2.9 -2.7z m107.6 -50.8 c0 -2.3 -2.7 -11.9 -4.2 -15.2 -3.6 -7.6 -7.7 -8.8 -34.8 -10.3 -9.1 -0.4 -21.7 -1.3 -28 -1.9 -6.3 -0.6 -19.4 -1.5 -29 -2.1 -9.6 -0.6 -26.7 -1.7 -38 -2.5 -11.3 -0.8 -31.5 -2.2 -45 -3 -13.5 -0.8 -26.1 -1.7 -28 -2 -3.3 -0.5 -29.4 -2.3 -47.5 -3.2 -9.9 -0.5 -14 1.5 -15.1 7.2 -1.1 5.8 0 20.5 1.6 21.5 2 1.3 11.8 1.9 45 3 16.2 0.6 39.4 1.4 51.5 2 28.4 1.3 155.3 6.5 166.8 6.9 2.6 0 4.7 -0.1 4.7 -0.4z"/>
  <path d="M202 217.8 c-4.4 -9.7 -0.1 -18.1 6 -11.6 2.7 2.9 2.8 11.7 0.2 14.1 -2.9 2.6 -4.1 2.1 -6.2 -2.5z"/>
  <path d="M168.6 206.8 c-1.8 -2.5 -2.1 -8 -0.6 -10.8 1.1 -2 7.4 -4.5 9 -3.5 1.6 1 1.1 7.7 -1 12.3 -2.2 4.8 -4.9 5.6 -7.4 2z"/>
  <path d="M230.3 200 c-4.9 -2.9 -6.8 -8.1 -4.3 -12 0.8 -1.2 1.3 -1.2 4.4 0.2 4.2 2 6.5 5.3 7.3 10.2 0.5 3.3 0.4 3.6 -1.8 3.6 -1.3 0 -3.8 -0.9 -5.6 -2z"/>
  <path d="M149.7 168.3 c-1.8 -0.5 -4.7 -5.2 -4.7 -7.8 0 -1.6 2.3 -2.8 7.5 -3.9 2.3 -0.5 3.7 -0.1 5.9 1.7 2.7 2.2 2.8 2.4 1.5 6.5 -1.1 4 -1.4 4.2 -4.8 4.1 -2 -0.1 -4.4 -0.3 -5.4 -0.6z"/>
  <path d="M237.5 163.4 c-1.1 -0.3 -3 -0.7 -4.2 -0.9 -1.3 -0.3 -2.5 -1.7 -3.2 -3.6 -1.9 -5.6 -1.6 -5.9 4.9 -5.9 6.6 0 6.9 0.2 7.3 6.5 0.2 4.1 -0.6 4.8 -4.8 3.9z"/>
 </g>
</svg>